<?xml version="1.0" encoding="UTF-8"?>
<!DOCTYPE svg PUBLIC "-//W3C//DTD SVG 1.1//EN" "http://www.w3.org/Graphics/SVG/1.1/DTD/svg11.dtd">
<!-- Creator: CorelDRAW 2021.5 -->
<svg xmlns="http://www.w3.org/2000/svg" xml:space="preserve" width="226.481mm" height="226.483mm" version="1.1" style="shape-rendering:geometricPrecision; text-rendering:geometricPrecision; image-rendering:optimizeQuality; fill-rule:evenodd; clip-rule:evenodd"
viewBox="0 0 12563.67 12563.82"
 xmlns:xlink="http://www.w3.org/1999/xlink"
 xmlns:xodm="http://www.corel.com/coreldraw/odm/2003">
 <defs>
  <style type="text/css">
   <![CDATA[
    .fil0 {fill:black;fill-rule:nonzero}
    .fil1 {fill:white;fill-rule:nonzero}
   ]]>
  </style>
 </defs>
 <g id="Layer_x0020_1">
  <metadata id="CorelCorpID_0Corel-Layer"/>
  <path class="fil0" d="M11099.02 12563.82l-9634.22 0c-809.01,0 -1464.8,-655.79 -1464.8,-1464.8l0 -9634.22c0,-809.01 655.79,-1464.8 1464.8,-1464.8l9634.07 0c809.01,0 1464.8,655.79 1464.8,1464.8l0 9634.07c0.15,809.16 -655.64,1464.94 -1464.65,1464.94z"/>
  <g id="layer1">
   <path id="path1009" class="fil1" d="M1930.07 2188.86l3376.82 4515.19 -3398.1 3670.96 764.84 0 2975.1 -3214.05 2403.71 3214.05 2602.6 0 -3566.9 -4769.11 3162.97 -3417.04 -764.84 0 -2739.83 2959.98 -2213.78 -2959.98 -2602.59 0zm1124.73 563.46l1195.62 0 5279.74 7059.37 -1195.62 0.01 -5279.74 -7059.37z"/>
  </g>
 </g>
</svg>
