<?xml version="1.0" encoding="UTF-8"?>
<!DOCTYPE svg PUBLIC "-//W3C//DTD SVG 1.1//EN" "http://www.w3.org/Graphics/SVG/1.1/DTD/svg11.dtd">
<!-- Creator: CorelDRAW 2021.5 -->
<svg xmlns="http://www.w3.org/2000/svg" xml:space="preserve" width="18.0412mm" height="13.2268mm" version="1.1" style="shape-rendering:geometricPrecision; text-rendering:geometricPrecision; image-rendering:optimizeQuality; fill-rule:evenodd; clip-rule:evenodd"
viewBox="0 0 519.7 381.02"
 xmlns:xlink="http://www.w3.org/1999/xlink"
 xmlns:xodm="http://www.corel.com/coreldraw/odm/2003">
 <defs>
  <style type="text/css">
   <![CDATA[
    .str0 {stroke:black;stroke-width:4.88;stroke-miterlimit:22.9256}
    .fil1 {fill:#ED2524}
    .fil0 {fill:white}
   ]]>
  </style>
 </defs>
 <g id="Layer_x0020_1">
  <metadata id="CorelCorpID_0Corel-Layer"/>
  <rect class="fil0 str0" x="139.89" y="41.01" width="247.57" height="245.97"/>
  <path class="fil1" d="M346.57 185.02l-140.34 75.81 0 -116.72 0 -35.5 63.33 34.45 77.01 41.97 0 -0zm167.87 -102.89c0,0 -4.96,-37.3 -20.61,-53.7 -19.7,-21.66 -41.82,-21.81 -52.04,-23.01 -72.65,-5.42 -181.71,-5.42 -181.71,-5.42l-0.3 0c0,0 -109.05,0 -181.86,5.42 -10.08,1.2 -32.19,1.35 -52.04,23.01 -15.49,16.4 -20.61,53.7 -20.61,53.7 0,0 -5.27,43.92 -5.27,87.7l0 5.42 0 35.8c0,43.77 5.27,87.7 5.27,87.7 0,0 5.11,37.3 20.61,53.7 19.86,21.66 45.73,20.91 57.31,23.16 41.67,4.21 176.74,5.42 176.74,5.42 0,0 109.21,-0.15 181.86,-5.57 10.23,-1.35 32.34,-1.35 52.04,-23.01 15.64,-16.4 20.61,-53.7 20.61,-53.7 0,0 5.27,-43.92 5.27,-87.7l0 -33.54 0 -7.67c0,-43.77 -5.27,-87.7 -5.27,-87.7l-0 -0z"/>
 </g>
</svg>
